<?xml version="1.0" standalone="no"?>
<!DOCTYPE svg PUBLIC "-//W3C//DTD SVG 20010904//EN"
 "http://www.w3.org/TR/2001/REC-SVG-20010904/DTD/svg10.dtd">
<svg version="1.0" xmlns="http://www.w3.org/2000/svg"
 width="180.000000pt" height="180.000000pt" viewBox="0 0 180.000000 180.000000"
 preserveAspectRatio="xMidYMid meet">
<metadata>
Created by potrace 1.14, written by Peter Selinger 2001-2017
</metadata>
<g transform="translate(0.000000,180.000000) scale(0.100000,-0.100000)"
fill="#000000" stroke="none">
<path d="M1001 1763 c-1 -7 -10 -13 -21 -13 -14 0 -18 -5 -13 -17 6 -16 5 -17
-12 -3 -17 14 -18 14 -5 -10 12 -23 12 -24 -4 -11 -14 12 -16 12 -10 -3 5 -12
2 -15 -12 -10 -11 3 -15 2 -8 -3 6 -4 13 -18 17 -31 4 -19 3 -21 -9 -11 -12
10 -13 9 -8 -5 3 -9 10 -16 15 -16 5 0 9 -4 9 -10 0 -5 -8 -7 -17 -4 -11 4
-14 2 -8 -3 6 -4 11 -23 12 -42 0 -33 0 -34 -14 -15 -15 18 -15 18 -9 -3 8
-24 2 -30 -37 -37 -16 -3 -25 -1 -22 5 4 5 1 9 -4 9 -6 0 -11 -6 -11 -12 0
-10 -2 -10 -8 -1 -5 8 -13 9 -22 3 -13 -8 -13 -10 -1 -10 33 0 -3 -14 -42 -16
-23 -2 -43 -4 -44 -5 -2 -1 -7 -2 -12 -3 -5 0 -13 -5 -18 -10 -5 -5 -3 -6 5
-2 6 4 12 2 12 -5 0 -6 -8 -9 -20 -6 -13 3 -18 1 -13 -6 4 -7 0 -8 -11 -4 -11
5 -15 3 -10 -5 5 -8 2 -9 -11 -4 -15 5 -16 4 -5 -9 11 -13 10 -14 -5 -9 -11 5
-16 4 -12 -3 3 -5 0 -10 -8 -11 -8 -1 -22 -3 -30 -4 -11 -1 -12 -5 -4 -14 8
-10 6 -12 -10 -9 -12 2 -21 -1 -21 -6 0 -6 -5 -7 -12 -3 -6 4 -8 3 -4 -4 7
-12 -13 -62 -26 -62 -5 0 -1 12 8 28 l16 27 -20 -25 c-11 -13 -18 -28 -16 -32
3 -4 -1 -8 -8 -8 -10 0 -9 -3 2 -9 8 -6 19 -7 25 -5 5 3 0 -3 -12 -14 -22 -20
-32 -39 -14 -28 17 11 3 -58 -15 -72 -18 -13 -17 -14 6 -7 l25 6 -25 -21 c-16
-14 -19 -20 -8 -16 10 3 20 1 23 -4 4 -6 -1 -10 -10 -10 -12 0 -13 -5 -7 -17
4 -10 8 -25 7 -33 0 -8 4 -18 10 -22 6 -5 5 -8 -3 -8 -7 0 -10 -5 -6 -12 4 -7
3 -8 -4 -4 -8 4 -9 -6 -6 -35 3 -25 1 -38 -5 -35 -5 4 -8 17 -5 31 2 13 0 26
-6 30 -6 4 -7 -1 -3 -11 5 -13 3 -15 -8 -9 -12 8 -12 6 0 -8 7 -9 10 -17 6
-17 -4 0 -2 -7 5 -15 10 -12 16 -13 28 -3 13 11 14 11 8 0 -9 -14 12 -45 25
-37 4 3 5 13 2 23 -3 9 -3 14 2 10 4 -4 15 -2 23 5 13 10 14 9 7 -3 -13 -21
-15 -41 -3 -34 5 3 7 9 4 12 -3 3 3 11 14 19 19 14 17 49 -3 36 -6 -3 -7 -1
-3 6 6 8 12 9 20 2 9 -8 13 -7 13 4 0 7 -3 14 -6 13 -17 -2 -31 3 -30 10 1 4
0 9 -1 12 -9 22 -5 47 7 43 9 -4 11 0 7 11 -3 9 -11 13 -18 10 -6 -3 -3 1 7 9
13 11 15 16 5 20 -10 4 -10 7 1 18 12 12 13 12 6 0 -5 -9 -4 -12 3 -7 9 5 9
13 1 28 -8 15 -8 19 0 14 15 -10 14 7 -1 24 -11 12 -10 12 5 1 15 -12 17 -11
17 11 0 13 5 29 11 35 8 8 7 13 -2 18 -8 6 -10 4 -4 -5 5 -9 4 -11 -4 -6 -9 6
-9 11 0 22 6 7 16 11 23 7 17 -11 37 -12 30 -2 -3 5 -10 7 -15 4 -5 -4 -9 -2
-9 3 0 15 28 22 34 9 2 -7 5 -4 5 6 1 10 6 15 11 12 14 -9 42 14 33 28 -3 6
-1 7 5 3 6 -4 8 -14 5 -24 -4 -13 -2 -13 10 3 8 11 13 24 10 29 -4 5 -1 6 6 2
7 -5 10 -15 6 -24 -5 -12 -1 -12 17 4 l22 19 -16 -26 c-19 -29 -15 -41 10 -32
10 4 13 2 8 -5 -3 -6 0 -29 8 -51 10 -29 10 -41 2 -41 -6 0 -4 -4 4 -9 8 -6
17 -8 20 -6 4 2 7 -2 7 -10 0 -9 -4 -11 -11 -6 -7 6 -11 2 -11 -14 0 -19 3
-21 14 -12 12 10 14 9 8 -5 -4 -11 -2 -18 6 -18 8 0 9 -2 1 -8 -6 -4 -10 -15
-8 -24 1 -10 -3 -21 -8 -25 -7 -4 -8 -1 -3 8 8 12 6 12 -8 0 -12 -9 -14 -18
-8 -30 12 -21 -12 -56 -31 -45 -11 6 -11 5 0 -8 10 -13 10 -17 -4 -22 -11 -4
-13 -10 -7 -19 19 -24 23 -46 8 -40 -8 3 -12 10 -8 16 3 6 1 7 -5 3 -8 -5 -9
-13 -3 -24 4 -9 6 -23 3 -31 -3 -10 1 -12 14 -8 18 7 18 6 0 -8 -11 -8 -17
-18 -13 -21 3 -3 -6 -17 -21 -31 -15 -13 -21 -22 -14 -18 15 8 15 0 1 -26 -7
-13 -17 -18 -27 -15 -13 5 -12 2 2 -9 11 -8 17 -16 13 -16 -4 -1 -11 -2 -16
-3 -5 0 -13 -5 -18 -10 -5 -5 -3 -6 5 -2 17 10 15 -9 -3 -24 -11 -9 -12 -17
-6 -23 7 -7 7 -16 0 -29 -5 -10 -7 -18 -3 -18 4 0 -1 -9 -12 -21 -10 -12 -26
-18 -37 -15 -15 4 -16 2 -5 -11 12 -14 11 -15 -9 -5 -19 10 -23 9 -28 -8 -3
-11 -11 -20 -17 -20 -7 0 -7 4 1 13 8 10 7 14 -4 14 -8 0 -15 -7 -15 -16 0
-14 -2 -14 -10 -1 -9 14 -14 7 -11 -13 1 -5 -3 -6 -8 -3 -5 4 -11 3 -14 -1 -2
-5 -2 -3 -1 4 2 7 -1 15 -7 18 -5 4 -8 3 -7 -2 2 -4 0 -8 -3 -8 -3 0 -13 -6
-22 -14 -10 -7 -17 -10 -17 -6 0 4 -7 2 -15 -5 -12 -10 -13 -16 -4 -27 10 -11
8 -12 -14 -4 -30 12 -55 -7 -35 -27 9 -9 6 -10 -11 -7 -18 3 -22 1 -16 -13 5
-14 4 -15 -6 -5 -19 19 -28 16 -24 -8 4 -17 2 -19 -10 -9 -12 10 -15 10 -15 0
0 -8 -3 -10 -7 -7 -3 4 -13 1 -21 -6 -13 -10 -14 -9 -7 2 6 11 4 13 -7 9 -8
-4 -21 -2 -28 2 -8 5 -22 4 -31 -1 -11 -6 -20 -5 -24 1 -4 6 -13 5 -25 -2 -14
-9 -16 -16 -9 -30 9 -17 5 -22 -13 -19 -12 2 -10 -13 3 -26 8 -8 7 -13 -2 -18
-8 -6 -10 -4 -4 5 5 8 4 11 -3 6 -6 -4 -9 -13 -6 -21 4 -8 9 -13 13 -10 4 2 8
-2 8 -10 0 -8 -5 -11 -10 -8 -7 4 -8 -1 -3 -12 5 -15 4 -16 -9 -5 -13 11 -14
10 -9 -5 6 -14 4 -16 -7 -11 -8 4 -5 0 6 -10 20 -16 20 -16 -3 -11 -19 4 -21
3 -11 -9 9 -11 8 -14 -2 -14 -12 0 -12 -2 0 -9 7 -5 13 -21 13 -36 0 -18 3
-23 9 -14 4 7 5 18 2 24 -4 5 2 3 13 -6 34 -29 50 -34 29 -9 -11 13 -14 20 -7
16 20 -12 35 4 20 22 -10 12 -10 14 -1 8 9 -5 13 -1 13 12 0 25 25 46 42 36 9
-5 8 -2 -2 12 -8 10 -11 16 -7 13 9 -8 55 32 50 43 -2 4 2 10 8 14 7 4 9 3 5
-4 -4 -6 1 -10 13 -9 11 0 18 4 16 7 -2 3 8 11 22 17 21 10 24 10 19 -3 -3 -8
-2 -13 3 -9 5 3 12 -1 15 -7 3 -7 3 -1 1 14 -3 25 -2 26 20 18 15 -6 27 -6 30
1 4 5 11 6 17 3 7 -5 9 -1 5 9 -4 11 -2 14 8 10 8 -3 12 -9 9 -15 -3 -5 3 -4
15 4 12 7 21 17 21 23 0 5 5 3 10 -5 8 -13 10 -13 10 2 0 21 16 32 26 17 4 -7
3 -9 -3 -6 -5 3 -10 -1 -10 -10 0 -12 5 -11 19 7 10 12 18 17 18 11 0 -6 5
-11 11 -11 5 0 7 5 4 10 -4 6 5 10 19 10 14 0 25 3 25 8 -3 19 3 22 21 12 16
-9 20 -8 20 6 0 14 3 14 16 4 13 -11 16 -10 21 8 3 12 9 19 14 17 4 -3 6 -13
2 -23 -3 -11 1 -9 11 6 10 12 14 28 10 35 -5 7 0 6 11 -3 17 -14 18 -13 12 3
-5 15 -3 16 12 7 16 -8 18 -7 14 8 -2 10 5 26 19 37 14 13 19 14 13 5 -8 -13
-7 -13 5 0 9 9 21 15 28 12 16 -5 16 15 0 21 -10 4 -10 6 0 6 8 1 10 6 6 13
-6 10 -5 10 8 0 13 -10 18 -9 29 5 9 11 10 14 2 9 -7 -4 -13 -2 -13 3 0 6 5
11 12 11 6 0 8 3 5 7 -12 11 14 32 31 26 15 -6 16 -5 2 12 -9 11 -10 16 -2 11
6 -4 12 -2 12 3 0 6 -5 11 -12 11 -6 0 -8 3 -5 6 4 4 14 1 23 -7 16 -13 16
-12 6 8 -11 19 -9 21 11 16 22 -5 22 -5 2 11 -11 10 -14 14 -6 10 10 -5 13 -3
8 8 -4 11 -1 15 11 13 9 -2 24 -4 32 -4 13 -1 13 -3 0 -12 -13 -9 -12 -10 2
-5 10 3 20 1 24 -5 3 -5 15 -7 26 -3 15 4 18 3 13 -6 -5 -8 -4 -11 3 -6 6 4 9
13 5 21 -3 8 0 15 7 15 6 0 9 -4 6 -8 -2 -4 -1 -14 5 -22 5 -9 9 -10 9 -3 0
17 54 10 74 -10 21 -21 33 -23 17 -3 -9 11 -9 16 0 22 7 4 9 3 6 -3 -4 -6 0
-14 9 -17 8 -3 12 -2 9 4 -3 6 -1 10 4 10 6 0 11 -5 11 -11 0 -5 4 -8 9 -5 5
3 12 -1 15 -10 9 -23 7 -27 -7 -18 -7 5 -4 0 8 -10 l20 -19 -23 6 c-22 5 -23
5 -8 -18 15 -23 15 -24 -1 -18 -16 6 -17 5 -3 -12 9 -11 10 -16 3 -11 -13 7
-19 -7 -13 -29 2 -5 2 -20 2 -32 -1 -13 3 -23 9 -23 5 0 7 -5 4 -10 -4 -6 -11
-8 -16 -5 -17 11 -9 -4 14 -25 14 -14 16 -19 6 -15 -10 4 -20 1 -25 -6 -4 -8
-3 -10 4 -5 7 4 12 2 12 -4 0 -6 6 -8 13 -5 6 4 3 -1 -7 -9 -15 -12 -16 -16
-5 -16 12 0 12 -2 -1 -10 -8 -5 -10 -10 -4 -10 7 0 15 -7 18 -16 6 -15 4 -15
-10 -3 -16 13 -16 12 -5 -10 8 -15 9 -21 2 -17 -6 4 -11 3 -11 -3 0 -5 6 -12
13 -14 9 -4 9 -6 0 -6 -7 -1 -10 -7 -7 -15 3 -8 1 -17 -5 -21 -6 -3 -9 0 -5 8
3 8 1 17 -4 21 -5 3 -9 0 -10 -7 -7 -55 -20 -89 -32 -82 -5 3 -7 -1 -6 -7 3
-25 17 -37 33 -31 11 4 14 3 9 -5 -6 -11 12 -17 37 -13 4 0 7 -4 7 -10 0 -6 7
-9 15 -5 8 3 15 0 15 -7 0 -8 4 -6 10 3 8 13 10 12 10 -3 0 -10 6 -17 13 -16
24 3 38 -1 33 -9 -3 -5 1 -9 9 -9 8 0 11 5 8 11 -4 6 1 5 10 -3 13 -10 17 -10
17 -1 0 10 3 10 14 1 10 -8 16 -9 21 -1 3 6 10 8 15 5 5 -3 12 0 16 6 4 7 3 9
-2 6 -6 -3 -15 3 -22 13 -9 14 -9 21 0 26 7 5 8 3 3 -6 -6 -9 -4 -11 5 -5 9 6
11 4 5 -6 -5 -8 -4 -10 0 -6 16 14 13 35 -3 33 -9 -2 -25 7 -35 18 -10 12 -16
16 -13 9 4 -6 2 -14 -4 -18 -9 -6 -14 7 -11 28 0 4 -4 7 -10 7 -5 0 -7 6 -3
12 5 8 0 7 -11 -2 -11 -9 -16 -10 -11 -2 6 10 -3 16 -25 14 -3 -1 -6 6 -6 14
0 9 6 13 14 10 8 -3 11 -1 8 4 -3 6 -13 10 -22 10 -12 0 -13 3 -4 14 9 11 9
15 -1 19 -10 4 -10 6 0 6 6 1 12 6 12 12 0 5 -4 7 -10 4 -6 -3 -7 1 -4 9 3 9
9 14 13 12 9 -6 6 58 -4 74 -5 9 -4 11 3 6 7 -4 12 -1 12 8 0 8 8 20 18 25 9
6 11 11 5 11 -7 0 -13 5 -13 11 0 5 4 7 10 4 6 -3 7 1 4 9 -4 11 0 16 12 17
16 0 15 2 -3 9 -27 11 -30 18 -5 16 12 -1 16 5 14 18 -3 15 0 18 10 10 8 -5 6
-1 -4 8 -18 16 -18 17 3 23 17 6 19 9 8 16 -9 5 -9 9 -2 9 6 0 12 16 12 35 3
58 4 64 13 59 5 -3 6 -9 4 -13 -3 -4 1 -8 9 -8 12 0 12 3 3 14 -9 11 -9 16 1
22 10 6 9 10 -4 15 -9 3 -13 11 -9 18 5 8 2 9 -9 5 -11 -4 -20 1 -27 16 -11
21 -11 21 4 3 9 -11 16 -15 16 -9 0 7 -5 15 -10 18 -6 4 -7 11 -4 17 5 7 2 8
-6 3 -7 -4 -16 -2 -22 6 -8 11 -9 10 -4 -3 3 -10 1 -18 -4 -18 -6 0 -10 7 -10
15 0 8 -9 15 -20 15 -11 0 -20 5 -20 11 0 5 5 7 12 3 7 -4 8 -3 4 4 -7 12 -36
5 -36 -9 0 -5 -5 -9 -11 -9 -8 0 -7 5 1 15 17 21 5 31 -17 14 -9 -8 -14 -9
-10 -3 4 6 -2 22 -13 34 -11 13 -20 19 -20 14 0 -6 5 -15 10 -20 7 -7 6 -11
-4 -11 -8 0 -15 3 -14 6 2 19 -4 28 -17 28 -8 0 -15 -5 -15 -11 0 -5 -12 5
-27 22 -25 31 -27 32 -50 17 -21 -14 -24 -14 -29 0 -3 8 -10 13 -14 10 -4 -3
-14 3 -21 13 -13 15 -12 16 4 3 9 -7 17 -10 17 -6 0 5 -8 17 -17 28 -10 11
-12 17 -5 13 6 -4 12 -3 12 3 0 5 -6 12 -12 14 -9 4 -8 6 2 6 11 1 15 13 15
43 0 34 4 43 17 42 10 -1 14 4 11 12 -2 7 -12 10 -21 8 -9 -3 -6 2 8 10 14 8
20 15 14 16 -17 0 -25 27 -8 27 7 0 10 -5 7 -10 -3 -6 -1 -7 6 -3 9 6 9 11 1
21 -8 9 -8 15 0 20 5 3 10 1 10 -4 0 -6 4 -11 10 -11 5 0 7 7 4 15 -4 8 -1 15
6 15 6 0 9 -3 6 -8 -2 -4 3 -16 11 -27 15 -19 15 -19 9 5 -6 21 -5 22 4 7 6
-9 15 -15 20 -12 5 3 12 0 16 -6 4 -7 3 -9 -4 -5 -6 3 -13 2 -17 -3 -3 -6 6
-8 21 -5 21 4 25 2 20 -11 -3 -9 -2 -13 4 -10 6 3 10 0 10 -7 0 -10 2 -10 8
-1 4 7 18 14 30 16 12 2 25 7 29 12 5 4 2 5 -4 1 -7 -4 -13 -3 -13 2 0 5 10
12 21 15 15 4 20 11 15 23 -6 15 -4 15 11 3 10 -7 15 -10 11 -5 -10 12 11 48
22 41 6 -4 7 1 3 11 -5 13 -3 16 10 11 11 -4 14 -2 10 8 -3 8 -9 12 -14 9 -5
-3 -6 2 -3 11 4 10 13 14 23 10 12 -5 13 -4 4 6 -9 9 -8 18 8 40 11 16 18 33
15 38 -7 11 13 9 32 -3 11 -7 11 -4 1 12 -7 12 -18 18 -24 15 -5 -2 1 4 14 15
18 14 21 21 11 27 -9 6 -11 4 -6 -6 4 -8 1 -6 -7 4 -8 9 -19 17 -26 17 -6 0
-11 10 -12 23 0 12 -3 17 -5 10 -3 -7 -13 -9 -22 -6 -13 4 -12 2 3 -11 11 -10
15 -15 9 -12 -7 3 -15 -1 -18 -10 -3 -9 -13 -14 -20 -11 -11 4 -13 -1 -10 -18
2 -13 0 -34 -5 -48 -7 -17 -6 -28 2 -37 10 -10 8 -12 -7 -6 -15 5 -17 2 -13
-14 3 -11 2 -18 -2 -16 -9 6 -36 -11 -37 -24 -3 -20 -4 -21 -23 -10 -14 7 -21
6 -24 -3 -3 -6 -6 -1 -6 13 -1 20 -3 22 -11 10 -8 -13 -10 -12 -10 4 0 12 -5
16 -14 13 -10 -4 -14 0 -11 14 2 10 6 23 9 27 3 5 -1 9 -9 9 -8 0 -13 -5 -12
-10 1 -5 -5 -12 -13 -14 -9 -3 -11 -1 -5 4 15 11 12 39 -3 35 -10 -2 -10 3 -3
17 13 23 3 35 -17 18 -11 -8 -14 -8 -9 0 4 7 -1 14 -12 18 -13 4 -17 12 -14
26 4 12 0 25 -8 31 -10 6 -7 7 10 3 16 -5 21 -4 17 4 -4 6 0 11 9 11 10 0 13
-5 9 -12 -4 -7 -3 -8 5 -4 9 6 9 11 -1 24 -11 13 -10 15 5 9 9 -3 17 -5 17 -2
0 2 -8 11 -17 21 -17 17 -17 17 5 12 26 -7 28 0 5 19 -17 14 -17 14 0 9 21 -7
23 10 1 18 -9 4 -12 11 -7 18 11 19 12 37 3 43 -4 3 -6 14 -3 25 4 16 0 20
-17 20 -18 0 -20 3 -11 14 9 11 6 12 -15 8 -16 -3 -25 -1 -21 5 3 5 0 10 -8
10 -8 0 -12 -4 -9 -9 3 -4 0 -8 -5 -8 -6 0 -11 6 -11 13 0 9 -3 8 -9 -2 -7
-11 -9 -11 -14 0 -4 10 -6 10 -6 2z m-46 -181 c-3 -3 -11 0 -18 7 -9 10 -8 11
6 5 10 -3 15 -9 12 -12z m-225 -102 c0 -5 -5 -10 -11 -10 -5 0 -7 5 -4 10 3 6
8 10 11 10 2 0 4 -4 4 -10z m409 -543 c0 -9 -2 -8 -6 1 -2 6 -10 9 -15 6 -7
-4 -8 -2 -4 5 9 13 26 5 25 -12z m-379 -131 c0 -2 -7 -7 -16 -10 -8 -3 -12 -2
-9 4 6 10 25 14 25 6z m665 -46 c3 -5 1 -10 -4 -10 -6 0 -11 5 -11 10 0 6 2
10 4 10 3 0 8 -4 11 -10z m-375 -21 c0 -14 -17 -10 -23 5 -4 10 -1 13 9 9 7
-3 14 -9 14 -14z m-587 -234 c-3 -9 -8 -14 -10 -11 -3 3 -2 9 2 15 9 16 15 13
8 -4z m-73 -35 c0 -5 -5 -10 -11 -10 -5 0 -7 5 -4 10 3 6 8 10 11 10 2 0 4 -4
4 -10z m-176 -68 c3 -5 -1 -9 -9 -9 -8 0 -12 4 -9 9 3 4 7 8 9 8 2 0 6 -4 9
-8z m256 -18 c0 -8 -19 -13 -24 -6 -3 5 1 9 9 9 8 0 15 -2 15 -3z m-360 -184
c0 -5 -5 -10 -11 -10 -5 0 -7 5 -4 10 3 6 8 10 11 10 2 0 4 -4 4 -10z m1090 0
c0 -5 -2 -10 -4 -10 -3 0 -8 5 -11 10 -3 6 -1 10 4 10 6 0 11 -4 11 -10z"/>
<path d="M1135 1700 c-3 -5 -1 -10 4 -10 6 0 11 5 11 10 0 6 -2 10 -4 10 -3 0
-8 -4 -11 -10z"/>
<path d="M1145 1663 c3 -3 0 -11 -5 -18 -7 -8 -5 -12 4 -12 14 0 16 22 3 32
-4 3 -5 2 -2 -2z"/>
<path d="M767 1517 c-3 -8 1 -14 8 -14 7 0 11 6 8 14 -3 7 -6 13 -8 13 -2 0
-5 -6 -8 -13z"/>
<path d="M1410 1506 c0 -2 7 -7 16 -10 8 -3 12 -2 9 4 -6 10 -25 14 -25 6z"/>
<path d="M1146 1422 c-3 -5 1 -9 9 -9 8 0 12 4 9 9 -3 4 -7 8 -9 8 -2 0 -6 -4
-9 -8z"/>
<path d="M460 1199 c0 -5 5 -7 10 -4 6 3 10 8 10 11 0 2 -4 4 -10 4 -5 0 -10
-5 -10 -11z"/>
<path d="M801 1111 c-8 -5 -9 -11 -3 -15 5 -3 12 1 16 9 6 17 6 18 -13 6z"/>
<path d="M1063 1105 c0 -8 4 -12 9 -9 5 3 6 10 3 15 -9 13 -12 11 -12 -6z"/>
<path d="M454 1066 c1 -8 5 -18 8 -22 4 -3 5 1 4 10 -1 8 -5 18 -8 22 -4 3 -5
-1 -4 -10z"/>
<path d="M550 1046 c0 -2 7 -9 15 -16 13 -11 14 -10 9 4 -5 14 -24 23 -24 12z"/>
<path d="M780 1020 c-9 -6 -10 -10 -3 -10 6 0 15 5 18 10 8 12 4 12 -15 0z"/>
<path d="M1086 975 c-9 -26 -7 -32 5 -12 6 10 9 21 6 23 -2 3 -7 -2 -11 -11z"/>
<path d="M1161 953 c-1 -17 16 -25 25 -12 4 7 3 9 -4 5 -5 -3 -13 0 -15 6 -4
9 -6 10 -6 1z"/>
<path d="M1110 711 c0 -6 4 -13 10 -16 6 -3 7 1 4 9 -7 18 -14 21 -14 7z"/>
<path d="M896 641 c-3 -5 1 -11 9 -14 9 -4 12 -1 8 9 -6 16 -10 17 -17 5z"/>
<path d="M638 613 c10 -4 10 -8 0 -21 -12 -15 -11 -16 4 -3 19 14 15 32 -5 30
-8 0 -8 -2 1 -6z"/>
<path d="M1355 419 c-4 -6 -5 -12 -2 -15 2 -3 7 2 10 11 7 17 1 20 -8 4z"/>
<path d="M100 386 c0 -2 8 -10 18 -17 15 -13 16 -12 3 4 -13 16 -21 21 -21 13z"/>
<path d="M187 233 c-4 -3 -7 -11 -7 -17 0 -6 5 -5 12 2 6 6 9 14 7 17 -3 3 -9
2 -12 -2z"/>
<path d="M110 141 c0 -6 4 -13 10 -16 6 -3 7 1 4 9 -7 18 -14 21 -14 7z"/>
</g>
</svg>
